<svg width="84" height="84" viewBox="0 0 84 84" fill="none" xmlns="http://www.w3.org/2000/svg">
<g filter="url(#filter0_di_176_1754)">
<circle cx="33" cy="33" r="33" transform="matrix(-1 0 0 1 80 5)" fill="#839C45"/>
<circle cx="33" cy="33" r="32.5" transform="matrix(-1 0 0 1 80 5)" stroke="white" stroke-opacity="0.5"/>
</g>
<path d="M33.1478 39.866C32.4131 39.1365 32.409 37.9495 33.1385 37.2149L45.0272 25.243C45.7567 24.5084 46.9437 24.5043 47.6784 25.2338C48.413 25.9634 48.4171 27.1503 47.6876 27.885L37.1199 38.5266L47.7615 49.0943C48.4962 49.8238 48.5003 51.0108 47.7708 51.7454C47.0412 52.4801 45.8543 52.4842 45.1196 51.7547L33.1478 39.866ZM60.1007 36.5718C61.136 36.5682 61.9783 37.4046 61.9819 38.4399C61.9855 39.4753 61.1491 40.3175 60.1137 40.3211L60.1007 36.5718ZM34.4622 36.6612L60.1007 36.5718L60.1137 40.3211L34.4753 40.4105L34.4622 36.6612Z" fill="white"/>
<defs>
<filter id="filter0_di_176_1754" x="0" y="0" width="84" height="84" filterUnits="userSpaceOnUse" color-interpolation-filters="sRGB">
<feFlood flood-opacity="0" result="BackgroundImageFix"/>
<feColorMatrix in="SourceAlpha" type="matrix" values="0 0 0 0 0 0 0 0 0 0 0 0 0 0 0 0 0 0 127 0" result="hardAlpha"/>
<feOffset dx="-5" dy="4"/>
<feGaussianBlur stdDeviation="4.5"/>
<feComposite in2="hardAlpha" operator="out"/>
<feColorMatrix type="matrix" values="0 0 0 0 0.580538 0 0 0 0 0.65 0 0 0 0 0.410042 0 0 0 1 0"/>
<feBlend mode="normal" in2="BackgroundImageFix" result="effect1_dropShadow_176_1754"/>
<feBlend mode="normal" in="SourceGraphic" in2="effect1_dropShadow_176_1754" result="shape"/>
<feColorMatrix in="SourceAlpha" type="matrix" values="0 0 0 0 0 0 0 0 0 0 0 0 0 0 0 0 0 0 127 0" result="hardAlpha"/>
<feOffset dx="-2" dy="5"/>
<feGaussianBlur stdDeviation="4"/>
<feComposite in2="hardAlpha" operator="arithmetic" k2="-1" k3="1"/>
<feColorMatrix type="matrix" values="0 0 0 0 0.364116 0 0 0 0 0.454167 0 0 0 0 0.140792 0 0 0 1 0"/>
<feBlend mode="normal" in2="shape" result="effect2_innerShadow_176_1754"/>
</filter>
</defs>
</svg>
