<svg width="84" height="84" viewBox="0 0 84 84" fill="none" xmlns="http://www.w3.org/2000/svg">
<g filter="url(#filter0_di_176_1020)">
<circle cx="47" cy="38" r="33" fill="#839C45"/>
<circle cx="47" cy="38" r="32.5" stroke="white" stroke-opacity="0.5"/>
</g>
<path d="M60.8522 39.866C61.5869 39.1365 61.591 37.9495 60.8615 37.2149L48.9728 25.243C48.2433 24.5084 47.0563 24.5043 46.3216 25.2338C45.587 25.9634 45.5829 27.1503 46.3124 27.885L56.8801 38.5266L46.2385 49.0943C45.5038 49.8238 45.4997 51.0108 46.2292 51.7454C46.9588 52.4801 48.1457 52.4842 48.8804 51.7547L60.8522 39.866ZM33.8993 36.5718C32.864 36.5682 32.0217 37.4046 32.0181 38.4399C32.0145 39.4753 32.8509 40.3175 33.8863 40.3211L33.8993 36.5718ZM59.5378 36.6612L33.8993 36.5718L33.8863 40.3211L59.5247 40.4105L59.5378 36.6612Z" fill="white"/>
<defs>
<filter id="filter0_di_176_1020" x="0" y="0" width="84" height="84" filterUnits="userSpaceOnUse" color-interpolation-filters="sRGB">
<feFlood flood-opacity="0" result="BackgroundImageFix"/>
<feColorMatrix in="SourceAlpha" type="matrix" values="0 0 0 0 0 0 0 0 0 0 0 0 0 0 0 0 0 0 127 0" result="hardAlpha"/>
<feOffset dx="-5" dy="4"/>
<feGaussianBlur stdDeviation="4.5"/>
<feComposite in2="hardAlpha" operator="out"/>
<feColorMatrix type="matrix" values="0 0 0 0 0.580538 0 0 0 0 0.65 0 0 0 0 0.410042 0 0 0 1 0"/>
<feBlend mode="normal" in2="BackgroundImageFix" result="effect1_dropShadow_176_1020"/>
<feBlend mode="normal" in="SourceGraphic" in2="effect1_dropShadow_176_1020" result="shape"/>
<feColorMatrix in="SourceAlpha" type="matrix" values="0 0 0 0 0 0 0 0 0 0 0 0 0 0 0 0 0 0 127 0" result="hardAlpha"/>
<feOffset dx="-2" dy="5"/>
<feGaussianBlur stdDeviation="4"/>
<feComposite in2="hardAlpha" operator="arithmetic" k2="-1" k3="1"/>
<feColorMatrix type="matrix" values="0 0 0 0 0.364116 0 0 0 0 0.454167 0 0 0 0 0.140792 0 0 0 1 0"/>
<feBlend mode="normal" in2="shape" result="effect2_innerShadow_176_1020"/>
</filter>
</defs>
</svg>
