<svg width="887" height="422" viewBox="0 0 887 422" fill="none" xmlns="http://www.w3.org/2000/svg">
<g filter="url(#filter0_d_176_1008)">
<path d="M720.217 29.7359L724.429 17.2895L726.114 17L811.194 324.398L863 364.632L860.052 366.08H323.457L321.351 360.001L319.667 366.08H259.858L256.067 349.291L251.855 366.08H48V26.2625L49.2636 17L105.282 43.6296L117.075 17L127.605 28.5781L698.315 27.1308L702.106 17H702.948L720.217 29.7359Z" fill="#C5A95F"/>
<path d="M102.331 17H49.2617V365.79H252.696L256.908 347.844L261.541 365.79H318.822L321.771 357.975L323.877 365.79H862.156V17H726.533L722.742 31.1832L716.846 17H703.789L699.998 27.7097L696.207 17H116.652L111.176 41.6035L102.331 17Z" fill="url(#paint0_linear_176_1008)"/>
</g>
<defs>
<filter id="filter0_d_176_1008" x="0" y="0" width="887" height="421.08" filterUnits="userSpaceOnUse" color-interpolation-filters="sRGB">
<feFlood flood-opacity="0" result="BackgroundImageFix"/>
<feColorMatrix in="SourceAlpha" type="matrix" values="0 0 0 0 0 0 0 0 0 0 0 0 0 0 0 0 0 0 127 0" result="hardAlpha"/>
<feOffset dx="-12" dy="19"/>
<feGaussianBlur stdDeviation="18"/>
<feComposite in2="hardAlpha" operator="out"/>
<feColorMatrix type="matrix" values="0 0 0 0 0 0 0 0 0 0 0 0 0 0 0 0 0 0 0.25 0"/>
<feBlend mode="normal" in2="BackgroundImageFix" result="effect1_dropShadow_176_1008"/>
<feBlend mode="normal" in="SourceGraphic" in2="effect1_dropShadow_176_1008" result="shape"/>
</filter>
<linearGradient id="paint0_linear_176_1008" x1="64.0033" y1="31.7621" x2="551.036" y2="561.969" gradientUnits="userSpaceOnUse">
<stop stop-color="#F9F0DB"/>
<stop offset="1" stop-color="#E6D4A7"/>
</linearGradient>
</defs>
</svg>
