<svg width="562" height="312" viewBox="0 0 562 312" fill="none" xmlns="http://www.w3.org/2000/svg">
<path d="M70.5916 120.601C108.004 73.3712 164.232 69.7449 187.67 73.8355C190.655 66.6494 197.289 51.6801 199.942 49.2921C203.259 46.3071 198.947 66.8705 192.977 80.4688C188.201 91.3475 163.79 109.103 152.182 116.621L175.067 86.7705C170.556 82.5252 157.931 85.0016 152.182 86.7705C130.368 92.4089 80.6586 113.967 56.3299 155.094C32.0012 196.221 41.5496 219.99 49.3649 226.734C49.5825 231.488 64.6131 239.338 122.995 232.704C181.377 226.071 227.585 200.754 243.39 188.924C230.345 204.07 188.002 237.414 122.995 249.619C57.9883 261.825 37.5354 234.142 35.4348 218.774C31.5654 205.729 33.1795 167.83 70.5916 120.601Z" fill="#BA5333"/>
<path fill-rule="evenodd" clip-rule="evenodd" d="M233.772 129.224H240.406C241.069 129.998 242.396 132.873 242.396 138.179C242.396 139.489 242.137 143.205 241.773 148.435C240.293 169.69 237.072 215.953 242.396 227.398C249.029 241.66 257.653 244.313 256.989 242.323C256.941 242.178 256.866 241.966 256.769 241.692C255.541 238.208 250.784 224.724 252.014 211.81C253.341 197.879 259.643 165.376 263.291 160.733C265.417 158.027 265.516 168.046 265.622 178.782C265.698 186.471 265.777 194.529 266.608 198.543C266.702 198.999 266.798 199.466 266.895 199.943C268.859 209.533 271.597 222.898 278.548 219.106C282.665 216.86 282.981 212.396 283.427 206.072C283.772 201.189 284.196 195.197 286.508 188.261C291.702 172.679 291.812 172.984 293.058 176.424C293.085 176.499 293.113 176.575 293.141 176.653C293.593 177.896 294.006 180.832 294.512 184.425C295.492 191.382 296.818 200.802 299.443 205.176C303.423 211.81 311.714 213.136 315.363 210.151C317.355 208.521 320.236 202.838 322.874 197.635C325.068 193.309 327.093 189.315 328.298 188.261C328.961 197.106 332.145 215.392 339.574 217.78C348.861 220.765 360.47 219.106 367.766 210.151C373.604 202.987 378.38 194.342 380.038 190.914C380.148 202.854 381.564 228.061 386.34 233.368C391.116 238.675 394.963 238.896 396.29 238.343C395.074 225.297 394.83 192.374 403.586 165.044C410.16 144.527 413.33 156.648 417.361 172.06C420.041 182.31 423.102 194.015 427.798 198.543C437.085 207.498 444.713 208.161 454.331 190.914C453.447 199.096 454.398 215.325 465.277 214.795C474.204 214.359 479.986 195.197 484.595 179.927C487.006 171.936 489.096 165.011 491.147 162.391C494.201 158.489 493.002 167.866 491.502 179.599C490.069 190.804 488.362 204.157 489.82 210.151C492.805 222.423 500.765 223.086 506.735 220.433C512.705 217.78 523.982 197.548 528.625 176.653C530.638 167.593 529.659 169.944 527.011 176.297C523.552 184.597 517.246 199.728 511.047 205.176C502.291 212.871 500.544 201.307 500.765 194.563L506.735 136.853C506.624 133.315 504.281 126.571 495.79 127.898C494.31 128.129 493.197 134.069 491.633 142.418C491.093 145.297 490.5 148.462 489.82 151.778C485.066 168.029 474.165 200.997 468.593 202.854C463.021 204.712 465.166 186.161 466.935 176.653L472.905 127.898C473.347 125.244 473.104 119.871 468.593 119.606C462.955 119.274 453.336 119.937 446.04 123.918C443.205 125.464 444.475 125.558 447.147 125.757C451.353 126.07 459.03 126.64 459.638 133.536C460.434 142.557 456.432 168.25 454.331 179.969C451.899 187.487 445.443 201.727 439.075 198.543C432.707 195.359 428.904 180.633 427.798 173.668C427.135 164.381 425.41 144.017 423.818 136.853C422.226 129.689 418.069 129.445 416.19 130.219C409.777 135.084 395.892 156.421 391.646 202.854C390.209 202.854 387.932 197.614 390.32 176.653C391.483 166.441 393.352 157.338 394.924 149.677C397.387 137.68 399.123 129.219 396.29 125.576C392.416 120.596 385.773 121.155 381.944 121.477C381.183 121.541 380.533 121.596 380.038 121.596C377.053 121.596 371.415 122.259 373.073 123.918C373.793 124.638 375.577 125.045 377.419 125.466C379.818 126.014 382.316 126.584 382.691 127.898C383.178 129.601 381.88 150.238 380.891 165.952C380.533 171.651 380.215 176.703 380.038 179.969C379.372 192.241 362.46 215.789 347.866 208.161C336.191 202.058 341.012 182.623 344.881 173.668C351.404 172.341 365.71 167.034 370.751 156.421C375.793 145.808 372.852 140.722 370.751 139.506C368.098 137.737 360.47 132.939 351.183 127.898C341.896 122.856 339.574 124.249 339.574 125.576C337.474 132.651 332.941 149.058 331.614 158.079C331.287 160.306 331.024 162.261 330.785 164.039C329.814 171.266 329.236 175.567 326.308 183.286C322.659 192.904 315.031 207.166 310.388 202.854C306.888 199.604 306.403 186.556 306.092 178.196C305.991 175.465 305.908 173.234 305.744 172.009C305.081 167.034 303.754 158.079 299.443 158.079C298.965 158.079 298.516 158.063 298.09 158.048C294.674 157.924 292.774 157.855 289.824 166.703C288.488 170.711 287.062 176.497 285.626 182.324C283.498 190.959 281.348 199.686 279.433 202.854C276.867 207.1 275.784 191.578 275.563 183.286C276.853 173.336 279.433 151.778 279.433 145.144C279.433 138.511 273.757 136.853 270.919 136.853C269.04 136.3 264.22 139.174 259.974 155.094C258.484 160.682 257.386 165.094 256.526 168.548C254.324 177.396 253.684 179.969 252.014 179.969C250.157 179.969 252.125 161.617 253.341 152.441C255.22 145.918 258.581 132.143 256.989 129.224C254.999 125.576 241.069 121.596 233.772 129.224ZM344.882 168.361C351.183 164.823 363.919 156.289 364.45 150.451C365.113 143.155 362.128 137.848 353.505 135.858C348.862 134.786 344.882 163.718 344.882 168.361Z" fill="#BA5333"/>
</svg>
