<svg width="37" height="24" viewBox="0 0 37 24" fill="none" xmlns="http://www.w3.org/2000/svg">
<path d="M20.1523 24C7.80106 24 0.634397 15.3999 0.0316037 1.02307C0.00813927 0.463434 0.460115 0 1.02024 0H5.35102C5.89594 0 6.33903 0.436963 6.36327 0.981342C6.82187 11.2816 11.3204 15.6927 14.9062 16.6246V0.999999C14.9062 0.447715 15.3539 0 15.9062 0H19.8689C20.4212 0 20.8689 0.447715 20.8689 1V9.48949C24.3322 9.10213 27.9613 5.1922 29.4305 0.731735C29.5716 0.303205 29.9636 0 30.4148 0H34.4293C35.0484 0 35.5204 0.558077 35.3716 1.159C34.0665 6.43076 30.261 10.3055 27.5013 11.964C30.2745 13.3153 34.6119 16.7147 36.6286 22.7559C36.8364 23.3782 36.3576 24 35.7015 24H31.1741C30.7355 24 30.3513 23.7126 30.201 23.3006C28.6604 19.0784 25.274 15.8791 20.8689 15.4234V23.2833C20.8689 23.6791 20.5481 24 20.1523 24Z" fill="#33270A"/>
</svg>
